# xmcd
#
# Track frame offsets:
#	150
#	13716
#	30370
#	50427
#	64230
#	78466
#	97531
#	110425
#	126052
#	140455
#
# Disc length: 2080 seconds
#
# Revision: 1
# Processed by: cddbd v1.5.2PL0 Copyright (c) Steve Scherf et al.
# Submitted via: audiograbber 1.83.01
#
DISCID=75081e0a
DTITLE=Reba McEntire - Love Collection CD2
DYEAR=2005
DGENRE=Country
TTITLE0=Cathy's Clown
TTITLE1='Til Love Comes Again
TTITLE2=It Always Rains On Sunday
TTITLE3=Am I The Only One Who Cares
TTITLE4=Somebody Up There Likes Me
TTITLE5=You Must Really Love Me
TTITLE6=Say The Word
TTITLE7=Little Girl
TTITLE8=Walk On
TTITLE9=New Love
EXTD=
EXTT0=
EXTT1=
EXTT2=
EXTT3=
EXTT4=
EXTT5=
EXTT6=
EXTT7=
EXTT8=
EXTT9=
PLAYORDER=
